# xmcd
#
# Track frame offsets: 
#        150
#        16118
#        33494
#        52872
#        75933
#        95444
#        111735
#        126102
#        144504
#        163309
#
# Disc length: 2463 seconds
#
# Revision: 1
# Processed by: cddbd v1.5.2PL0 Copyright (c) Steve Scherf et al.
# Submitted via: ExactAudioCopy v1.5
#
DISCID=7b099d0a
DTITLE=Vampiri - Monkey Food
DYEAR=1997
DGENRE=POP
TTITLE0=Znam
TTITLE1=Bla Bla Bla
TTITLE2=Spejs Dzeronimo
TTITLE3=Dan
TTITLE4=Monkey Food
TTITLE5=Sedmi Deo
TTITLE6=Budi Se
TTITLE7=Lepo
TTITLE8=Ti Se Vrtis Oko Mene
TTITLE9=Svoj
EXTD=
EXTT0=
EXTT1=
EXTT2=
EXTT3=
EXTT4=
EXTT5=
EXTT6=
EXTT7=
EXTT8=
EXTT9=
PLAYORDER=
